<svg width="26" height="26" viewBox="0 0 26 26" fill="none" xmlns="http://www.w3.org/2000/svg">
<path d="M25.5 18.238C25.5 22.788 22.7875 25.5005 18.2375 25.5005H16.75C16.0625 25.5005 15.5 24.938 15.5 24.2505V17.038C15.5 16.7005 15.775 16.413 16.1125 16.413L18.3125 16.3755C18.4875 16.363 18.6375 16.238 18.675 16.063L19.1125 13.6755C19.15 13.4505 18.975 13.238 18.7375 13.238L16.075 13.2755C15.725 13.2755 15.45 13.0005 15.4375 12.663L15.3875 9.60049C15.3875 9.40049 15.55 9.2255 15.7625 9.2255L18.7625 9.17549C18.975 9.17549 19.1375 9.01301 19.1375 8.80051L19.0875 5.80048C19.0875 5.58798 18.925 5.42549 18.7125 5.42549L15.3375 5.4755C13.2625 5.513 11.6125 7.21299 11.65 9.28799L11.7125 12.7255C11.725 13.0755 11.45 13.3505 11.1 13.363L9.6 13.388C9.3875 13.388 9.22501 13.5505 9.22501 13.763L9.26251 16.138C9.26251 16.3505 9.425 16.513 9.6375 16.513L11.1375 16.488C11.4875 16.488 11.7625 16.763 11.775 17.1005L11.8875 24.2255C11.9 24.9255 11.3375 25.5005 10.6375 25.5005H7.7625C3.2125 25.5005 0.5 22.788 0.5 18.2255V7.76299C0.5 3.21299 3.2125 0.500488 7.7625 0.500488H18.2375C22.7875 0.500488 25.5 3.21299 25.5 7.76299V18.238Z" fill="#F5E8EF"/>
</svg>
