<?xml version="1.0" encoding="UTF-8" standalone="no"?>
<!DOCTYPE svg PUBLIC "-//W3C//DTD SVG 1.1//EN" "http://www.w3.org/Graphics/SVG/1.1/DTD/svg11.dtd">
<svg width="100%" height="100%" viewBox="0 0 438 438" version="1.1" xmlns="http://www.w3.org/2000/svg" xmlns:xlink="http://www.w3.org/1999/xlink" xml:space="preserve" xmlns:serif="http://www.serif.com/" style="fill-rule:evenodd;clip-rule:evenodd;stroke-linecap:round;stroke-linejoin:round;stroke-miterlimit:1.5;">
    <g transform="matrix(1.05463,0,0,1.05463,-29.9507,-29.2025)">
        <circle cx="235.584" cy="234.875" r="201.424" style="fill:rgb(246,198,208);"/>
    </g>
    <g transform="matrix(1.05463,0,0,1.05463,-29.9507,-29.2025)">
        <path d="M235.584,27.69C349.933,27.69 442.769,120.526 442.769,234.875C442.769,349.223 349.933,442.06 235.584,442.06C121.236,442.06 28.399,349.223 28.399,234.875C28.399,120.526 121.236,27.69 235.584,27.69ZM235.584,39.213C127.595,39.213 39.922,126.886 39.922,234.875C39.922,342.864 127.595,430.537 235.584,430.537C343.573,430.537 431.246,342.864 431.246,234.875C431.246,126.886 343.573,39.213 235.584,39.213Z" style="fill:white;"/>
    </g>
    <g id="hys" transform="matrix(4.83324,0,0,4.83324,-857.703,-363.339)">
        <path d="M198.012,115.242C198.012,115.242 217.353,97.503 222.351,97.494C227.348,97.486 247.324,115.159 247.324,115.159L241.956,115.171L241.949,133.74C241.991,138.584 238.627,142.829 233.51,143.233L212.807,143.269C206.636,143.421 203.482,139.155 203.139,133.407L202.861,115.219L198.012,115.242Z" style="fill:none;stroke:white;stroke-width:2.59px;"/>
    </g>
</svg>
