<?xml version="1.0" encoding="UTF-8" standalone="no"?>
<!DOCTYPE svg PUBLIC "-//W3C//DTD SVG 1.1//EN" "http://www.w3.org/Graphics/SVG/1.1/DTD/svg11.dtd">
<svg width="100%" height="100%" viewBox="0 0 438 438" version="1.1" xmlns="http://www.w3.org/2000/svg" xmlns:xlink="http://www.w3.org/1999/xlink" xml:space="preserve" xmlns:serif="http://www.serif.com/" style="fill-rule:evenodd;clip-rule:evenodd;stroke-linecap:round;stroke-linejoin:round;stroke-miterlimit:1.5;">
    <g transform="matrix(1.05463,0,0,1.05463,-29.9507,-29.2025)">
        <circle cx="235.584" cy="234.875" r="201.424" style="fill:rgb(154,218,232);"/>
    </g>
    <g transform="matrix(1.05463,0,0,1.05463,-29.9507,-29.2025)">
        <path d="M235.584,27.69C349.933,27.69 442.769,120.526 442.769,234.875C442.769,349.223 349.933,442.06 235.584,442.06C121.236,442.06 28.399,349.223 28.399,234.875C28.399,120.526 121.236,27.69 235.584,27.69ZM235.584,39.213C127.595,39.213 39.922,126.886 39.922,234.875C39.922,342.864 127.595,430.537 235.584,430.537C343.573,430.537 431.246,342.864 431.246,234.875C431.246,126.886 343.573,39.213 235.584,39.213Z" style="fill:white;"/>
    </g>
    <g id="Lego" transform="matrix(0.972192,0,0,0.972192,6.0762,6.0762)">
        <g>
            <g transform="matrix(5.9025,0,0,5.96229,-992.608,-1758.5)">
                <path d="M205.394,309.969C208.328,309.969 223.246,317.61 224.19,320.364C225.063,322.916 225.691,338.141 224.19,341.474C222.584,345.038 209.332,353.2 205.394,353.2C201.456,353.2 186.895,344.405 186.069,341.604C185.316,339.053 184.748,323.4 186.069,320.386C187.496,317.128 201.811,309.969 205.394,309.969Z" style="fill:none;stroke:white;stroke-width:2.17px;"/>
            </g>
            <g transform="matrix(5.38434,0,0,5.38434,-852.474,-1588.86)">
                <path d="M219.738,323.245L199.134,334.352L177.949,323.27L199.134,334.281L199.134,359.606" style="fill:none;stroke:white;stroke-width:2.39px;"/>
            </g>
        </g>
    </g>
</svg>
