<?xml version="1.0" encoding="UTF-8" standalone="no"?>
<!DOCTYPE svg PUBLIC "-//W3C//DTD SVG 1.1//EN" "http://www.w3.org/Graphics/SVG/1.1/DTD/svg11.dtd">
<svg width="100%" height="100%" viewBox="0 0 438 438" version="1.1" xmlns="http://www.w3.org/2000/svg" xmlns:xlink="http://www.w3.org/1999/xlink" xml:space="preserve" xmlns:serif="http://www.serif.com/" style="fill-rule:evenodd;clip-rule:evenodd;stroke-linecap:round;stroke-linejoin:round;stroke-miterlimit:1.5;">
    <g transform="matrix(1.05463,0,0,1.05463,-29.9507,-29.2025)">
        <circle cx="235.584" cy="234.875" r="201.424" style="fill:rgb(42,96,91);"/>
    </g>
    <g transform="matrix(1.05463,0,0,1.05463,-29.9507,-29.2025)">
        <path d="M235.584,27.69C349.933,27.69 442.769,120.526 442.769,234.875C442.769,349.223 349.933,442.06 235.584,442.06C121.236,442.06 28.399,349.223 28.399,234.875C28.399,120.526 121.236,27.69 235.584,27.69ZM235.584,39.213C127.595,39.213 39.922,126.886 39.922,234.875C39.922,342.864 127.595,430.537 235.584,430.537C343.573,430.537 431.246,342.864 431.246,234.875C431.246,126.886 343.573,39.213 235.584,39.213Z" style="fill:white;"/>
    </g>
    <g id="Natur" transform="matrix(5.13995,0,0,5.13995,-919.704,-1380.58)">
        <path d="M235.891,288.071C234.011,290.587 230.671,291.351 226.772,291.831C219.714,292.701 210.825,292.639 205.455,300.35C190.195,322.262 220.025,340.394 236.13,322.519C242.597,315.342 244.425,300.567 235.891,288.071Z" style="fill:none;stroke:white;stroke-width:2.84px;"/>
        <path d="M204.179,334.147C205.188,322.715 211.689,313.504 222.668,306.102" style="fill:none;stroke:white;stroke-width:2.84px;"/>
    </g>
</svg>
