<?xml version="1.0" encoding="UTF-8" standalone="no"?>
<!DOCTYPE svg PUBLIC "-//W3C//DTD SVG 1.1//EN" "http://www.w3.org/Graphics/SVG/1.1/DTD/svg11.dtd">
<svg width="100%" height="100%" viewBox="0 0 438 438" version="1.1" xmlns="http://www.w3.org/2000/svg" xmlns:xlink="http://www.w3.org/1999/xlink" xml:space="preserve" xmlns:serif="http://www.serif.com/" style="fill-rule:evenodd;clip-rule:evenodd;stroke-linecap:round;stroke-linejoin:round;stroke-miterlimit:1.5;">
    <g transform="matrix(1.05463,0,0,1.05463,-29.9507,-29.2025)">
        <circle cx="235.584" cy="234.875" r="201.424" style="fill:rgb(249,233,94);"/>
    </g>
    <g transform="matrix(1.05463,0,0,1.05463,-29.9507,-29.2025)">
        <path d="M235.584,27.69C349.933,27.69 442.769,120.526 442.769,234.875C442.769,349.223 349.933,442.06 235.584,442.06C121.236,442.06 28.399,349.223 28.399,234.875C28.399,120.526 121.236,27.69 235.584,27.69ZM235.584,39.213C127.595,39.213 39.922,126.886 39.922,234.875C39.922,342.864 127.595,430.537 235.584,430.537C343.573,430.537 431.246,342.864 431.246,234.875C431.246,126.886 343.573,39.213 235.584,39.213Z" style="fill:white;"/>
    </g>
    <g id="_50-" serif:id="50+" transform="matrix(5.0112,0,0,5.0112,-898.84,-1060.56)">
        <path d="M222.969,255.241L230.491,247.719C229.918,244.839 229.325,241.685 230.491,239.079C231.657,236.473 234.604,234.087 237.486,232.083C238.169,234.573 238.42,237.145 237.486,239.944C240.661,239.275 243.199,239.523 245.492,240.124C243.929,243.295 240.695,246.345 238.195,247.611C235.903,248.771 233.059,248.537 230.491,247.719" style="fill:none;stroke:white;stroke-width:2.49px;"/>
        <g transform="matrix(0.930734,0,0,0.930734,4.28997,8.64019)">
            <path d="M234.954,239.686C220.999,239.686 209.687,250.998 209.687,264.953C209.687,278.898 221.009,290.219 234.954,290.219C248.908,290.219 260.22,278.907 260.22,264.953C260.22,278.907 248.908,290.219 234.954,290.219C221.009,290.219 209.687,278.898 209.687,264.953C209.687,250.998 220.999,239.686 234.954,239.686Z" style="fill:none;stroke:white;stroke-width:2.68px;"/>
        </g>
        <g transform="matrix(0.420278,0,0,0.420278,124.223,143.887)">
            <path d="M234.954,239.686C220.999,239.686 209.687,250.998 209.687,264.953C209.687,278.898 221.009,290.219 234.954,290.219C248.908,290.219 260.22,278.907 260.22,264.953C260.22,278.907 248.908,290.219 234.954,290.219C221.009,290.219 209.687,278.898 209.687,264.953C209.687,250.998 220.999,239.686 234.954,239.686Z" style="fill:none;stroke:white;stroke-width:5.94px;"/>
        </g>
    </g>
</svg>
