<?xml version="1.0" encoding="UTF-8" standalone="no"?>
<!DOCTYPE svg PUBLIC "-//W3C//DTD SVG 1.1//EN" "http://www.w3.org/Graphics/SVG/1.1/DTD/svg11.dtd">
<svg width="100%" height="100%" viewBox="0 0 438 438" version="1.1" xmlns="http://www.w3.org/2000/svg" xmlns:xlink="http://www.w3.org/1999/xlink" xml:space="preserve" xmlns:serif="http://www.serif.com/" style="fill-rule:evenodd;clip-rule:evenodd;stroke-linecap:round;stroke-linejoin:round;stroke-miterlimit:1.5;">
    <g transform="matrix(1.05463,0,0,1.05463,-29.9507,-29.2025)">
        <circle cx="235.584" cy="234.875" r="201.424" style="fill:rgb(128,221,169);"/>
    </g>
    <g transform="matrix(1.05463,0,0,1.05463,-29.9507,-29.2025)">
        <path d="M235.584,27.69C349.933,27.69 442.769,120.526 442.769,234.875C442.769,349.223 349.933,442.06 235.584,442.06C121.236,442.06 28.399,349.223 28.399,234.875C28.399,120.526 121.236,27.69 235.584,27.69ZM235.584,39.213C127.595,39.213 39.922,126.886 39.922,234.875C39.922,342.864 127.595,430.537 235.584,430.537C343.573,430.537 431.246,342.864 431.246,234.875C431.246,126.886 343.573,39.213 235.584,39.213Z" style="fill:white;"/>
    </g>
    <g id="Netværl" transform="matrix(5.15367,0,0,5.15367,-928.994,-504.242)">
        <g transform="matrix(1.0332,0,0,1.0332,-18.7788,-6.52354)">
            <circle cx="233.677" cy="142.047" r="23.723" style="fill:none;stroke:white;stroke-width:2.35px;"/>
        </g>
        <path d="M214.471,128.064L214.488,135.483" style="fill:none;stroke:white;stroke-width:2.43px;"/>
        <g transform="matrix(1,0,0,1,-0.0243996,0)">
            <path d="M231.565,128.064L227.271,131.773L231.465,135.483" style="fill:none;stroke:white;stroke-width:2.43px;"/>
        </g>
        <path d="M211.832,142.167C209.41,161.798 236.537,161.819 233.927,142.09L211.832,142.167Z" style="fill:none;stroke:white;stroke-width:2.43px;"/>
    </g>
    <g transform="matrix(1.05463,0,0,1.05463,-29.9507,-29.2025)">
        <circle cx="235.584" cy="234.875" r="201.424" style="fill:rgb(174,147,163);"/>
    </g>
    <g transform="matrix(2.20362,0,0,2.20362,-277.513,-422.232)">
        <path d="M191.006,262.065L189.256,262.065C187.705,262.065 186.441,260.818 186.42,259.266L186.274,248.245C186.264,247.485 186.56,246.752 187.095,246.212C187.63,245.672 188.359,245.369 189.119,245.371L193.531,245.385L195.812,237.284C196.158,236.057 197.279,235.211 198.553,235.216L251.395,235.414C252.631,235.419 253.722,236.224 254.091,237.403L256.653,245.589L261.082,245.604C262.645,245.609 263.909,246.877 263.909,248.44L263.909,259.228C263.909,260.795 262.64,262.065 261.073,262.065L260.651,262.065L258.721,281.094C258.719,281.173 258.715,281.252 258.706,281.331L258.069,287.522L252.373,343.658C252.227,345.103 251.011,346.204 249.558,346.208L200.813,346.313C199.338,346.317 198.107,345.188 197.981,343.719L191.006,262.065ZM253.313,278.202L254.754,261.967L196.881,262.141L198.075,278.174L253.313,278.202ZM201.211,314.882L203.411,340.635L246.988,340.541L249.601,314.786L201.211,314.882ZM201.034,309.209L250.142,309.112L252.426,286.942L252.737,283.875L198.782,283.847L201.034,309.209ZM199.428,245.371L250.641,245.371L249.298,241.079L200.688,240.897L199.428,245.371ZM191.984,251.053L192.055,256.392L258.237,256.392L258.237,251.267L191.984,251.053Z" style="fill:white;"/>
    </g>
    <g transform="matrix(2.1897,0,0,1.9088,-268.026,-337.728)">
        <path d="M222.189,292.057C223.13,289.965 224.238,288.769 225.292,288.159C227.246,287.028 229.202,287.645 230.505,288.915C232.767,291.121 233.062,295.526 230.816,299.918C229.416,302.843 225.86,305.823 222.861,307.773C222.444,308.043 221.934,308.043 221.518,307.773C218.526,305.828 214.979,302.856 213.575,299.944C211.317,295.53 211.611,291.122 213.874,288.915C215.177,287.645 217.133,287.027 219.087,288.159C220.141,288.769 221.249,289.965 222.189,292.057Z" style="fill:white;"/>
    </g>
    <g transform="matrix(1.05463,0,0,1.05463,-29.9507,-29.2025)">
        <path d="M235.584,27.69C349.933,27.69 442.769,120.526 442.769,234.875C442.769,349.223 349.933,442.06 235.584,442.06C121.236,442.06 28.399,349.223 28.399,234.875C28.399,120.526 121.236,27.69 235.584,27.69ZM235.584,39.213C127.595,39.213 39.922,126.886 39.922,234.875C39.922,342.864 127.595,430.537 235.584,430.537C343.573,430.537 431.246,342.864 431.246,234.875C431.246,126.886 343.573,39.213 235.584,39.213Z" style="fill:white;"/>
    </g>
</svg>
