<svg width="27" height="29" viewBox="0 0 27 29" fill="none" xmlns="http://www.w3.org/2000/svg">
<path d="M26.25 9.35464C24.675 2.90413 18.63 0 13.32 0C13.32 0 13.32 0 13.305 0C8.00997 0 1.94997 2.89016 0.374967 9.34068C-1.38003 16.5451 3.35997 22.6466 7.64997 26.4862C9.23997 27.9103 11.28 28.6224 13.32 28.6224C15.36 28.6224 17.4 27.9103 18.975 26.4862C23.265 22.6466 28.005 16.5591 26.25 9.35464ZM13.32 16.3497C10.71 16.3497 8.59497 14.381 8.59497 11.9516C8.59497 9.52219 10.71 7.55352 13.32 7.55352C15.93 7.55352 18.045 9.52219 18.045 11.9516C18.045 14.381 15.93 16.3497 13.32 16.3497Z" fill="#80DDA9"/>
</svg>
