<?xml version="1.0" encoding="UTF-8" standalone="no"?>
<!DOCTYPE svg PUBLIC "-//W3C//DTD SVG 1.1//EN" "http://www.w3.org/Graphics/SVG/1.1/DTD/svg11.dtd">
<svg width="100%" height="100%" viewBox="0 0 438 438" version="1.1" xmlns="http://www.w3.org/2000/svg" xmlns:xlink="http://www.w3.org/1999/xlink" xml:space="preserve" xmlns:serif="http://www.serif.com/" style="fill-rule:evenodd;clip-rule:evenodd;stroke-linejoin:round;stroke-miterlimit:2;">
    <g>
        <g transform="matrix(1.05463,0,0,1.05463,-29.9507,-29.2025)">
            <circle cx="235.584" cy="234.875" r="201.424" style="fill:rgb(237,59,85);"/>
        </g>
        <g transform="matrix(1.05463,0,0,1.05463,-29.9507,-29.2025)">
            <path d="M235.584,27.69C349.933,27.69 442.769,120.526 442.769,234.875C442.769,349.223 349.933,442.06 235.584,442.06C121.236,442.06 28.399,349.223 28.399,234.875C28.399,120.526 121.236,27.69 235.584,27.69ZM235.584,39.213C127.595,39.213 39.922,126.886 39.922,234.875C39.922,342.864 127.595,430.537 235.584,430.537C343.573,430.537 431.246,342.864 431.246,234.875C431.246,126.886 343.573,39.213 235.584,39.213Z" style="fill:white;"/>
        </g>
        <g transform="matrix(5.31613,0,0,5.31613,-840.886,-675.427)">
            <circle cx="186.957" cy="169.354" r="3.778" style="fill:white;"/>
        </g>
        <g transform="matrix(5.31613,0,0,5.31613,-808.821,-731.238)">
            <circle cx="186.957" cy="169.354" r="3.778" style="fill:white;"/>
        </g>
        <g transform="matrix(5.31613,0,0,5.31613,-738.344,-731.238)">
            <circle cx="186.957" cy="169.354" r="3.778" style="fill:white;"/>
        </g>
        <g transform="matrix(1.50625e-16,4.0163,-4.0163,1.50625e-16,817.194,-678.25)">
            <path d="M223.532,114.91C234.511,114.91 238.487,121.775 237.342,127.06C236.707,129.992 235.917,132.348 235.604,134.412C235.349,136.089 235.433,137.537 236.451,138.964C238.385,141.674 242.996,143.799 246.952,140.901C249.161,139.283 251.001,139.038 252.44,139.518C253.809,139.976 254.938,141.149 255.714,142.917C256.641,145.029 257.104,148.07 257.164,151.333C257.467,167.807 242.44,183.22 223.532,183.22C204.681,183.22 189.377,167.916 189.377,149.065C189.377,130.202 204.669,114.91 223.532,114.91ZM223.532,117.936C206.34,117.936 192.403,131.873 192.403,149.065C192.403,166.246 206.351,180.194 223.532,180.194C240.679,180.194 254.413,166.328 254.139,151.388C254.089,148.703 253.769,146.184 253.044,144.374C252.654,143.4 252.206,142.63 251.482,142.388C250.744,142.142 249.873,142.512 248.741,143.342C243.19,147.408 236.701,144.524 233.988,140.721C232.47,138.594 232.233,136.458 232.612,133.957C232.933,131.842 233.734,129.425 234.385,126.419C235.242,122.461 231.754,117.936 223.532,117.936Z" style="fill:white;"/>
        </g>
    </g>
</svg>
